<?xml version="1.0" encoding="UTF-8"?>
<svg xmlns="http://www.w3.org/2000/svg" width="92" height="106" viewBox="0 0 92 106" fill="none">
  <path d="M35.8987 0.201035H7.03879V0.79641C9.66136 0.79641 11.6912 0.99358 13.1207 1.39179C14.5501 1.78999 15.5844 2.56321 16.2197 3.71143C16.855 4.85965 17.1727 6.62258 17.1727 9.00022L17.2928 52.1572C17.2928 68.012 16.9131 79.4439 16.1616 86.457C15.4062 93.4701 13.8528 98.3452 11.5092 101.082C9.16164 103.816 5.32656 105.223 6.10352e-05 105.304V105.899C6.12069 105.899 11.3697 104.392 15.7433 101.38C20.1129 98.3684 23.4522 94.3051 25.761 89.1942C28.0659 84.0832 29.2203 78.3576 29.2203 72.0134V8.64454C29.2203 5.63287 29.7975 3.57225 30.948 2.46269C32.0985 1.35312 33.7488 0.79641 35.8987 0.79641V0.201035Z" fill="url(#paint0_linear_328_50)"></path>
  <path d="M87.9202 59.7038C85.4449 55.9459 82.4581 52.799 78.9562 50.2551C75.4543 47.7151 70.6972 44.7343 64.6851 41.3206C58.824 37.9803 54.1793 35.1001 50.7548 32.6683C47.3304 30.2404 44.6652 27.395 42.7631 24.132C41.0122 21.3253 40.1367 18.4412 40.1367 15.4798C40.1367 12.7464 40.9153 10.2644 42.4765 8.0221C44.0376 5.78365 46.1682 4.02072 48.8721 2.72945C51.5722 1.43818 54.6403 0.792545 58.0647 0.792545C63.0891 0.792545 67.6757 2.10314 71.8245 4.72048L76.7907 1.93304C75.1909 1.93304 72.9479 1.66628 70.0542 1.13663C65.9441 0.378875 62.6319 0 60.1217 0C55.0974 0 50.4914 1.02451 46.3077 3.07353C42.1201 5.12255 38.8273 7.87519 36.4294 11.3276C34.0315 14.78 32.8345 18.5185 32.8345 22.5392C32.8345 24.7429 33.2142 26.9427 33.9773 29.1425C35.1201 32.1773 36.9253 34.988 39.4007 37.5666C41.8722 40.1492 44.5761 42.4456 47.5086 44.4521C50.4372 46.4625 54.2645 48.8362 58.9828 51.5657C64.1582 54.6006 68.3071 57.1986 71.4294 59.3636C74.5517 61.5247 77.3292 64.0492 79.7658 66.9333C82.2025 69.8174 83.721 73.0417 84.3331 76.6101C84.5616 77.7467 84.674 78.9259 84.674 80.1398C84.674 84.9222 82.7719 89.1323 78.964 92.7742C75.156 96.416 68.7642 98.465 59.7808 98.9212L59.4942 99.4779C65.5838 99.2498 71.3132 98.0707 76.109 95.9057C80.9047 93.7446 84.6895 90.7097 87.4709 86.7972C90.2484 82.8886 91.6391 78.2803 91.6391 72.9683C91.6391 67.6563 90.3995 63.4616 87.928 59.7076L87.9202 59.7038Z" fill="url(#paint1_linear_328_50)"></path>
  <path fill-rule="evenodd" clip-rule="evenodd" d="M58.4211 99.7331C58.3591 99.6597 55.9341 94.1389 54.0359 91.3863C53.1139 90.0447 52.1881 88.7728 51.0143 87.4699C49.7592 86.0781 48.2213 84.7907 47.2257 83.5652C51.5451 85.707 54.4427 90.4429 56.7243 94.2433C57.9369 96.2652 58.0608 97.4521 59.1145 98.6467C61.2722 86.6117 52.529 78.6244 41.7133 75.8369C39.8461 81.5316 41.938 88.2934 44.0144 91.3901C46.2302 94.6956 45.9861 94.8657 50.3209 95.6699C54.6519 96.474 55.6281 98.5153 58.4172 99.7292" fill="url(#paint2_linear_328_50)"></path>
  <path fill-rule="evenodd" clip-rule="evenodd" d="M57.5224 102.466C52.6607 102.354 49.7399 103.92 43.8981 101.442C47.3923 102.756 55.415 102.381 58.425 101.539C56.0581 97.0926 44.8627 92.9288 37.1926 101.032C42.3176 107.964 53.5749 106.87 57.5224 102.466Z" fill="url(#paint3_linear_328_50)"></path>
  <path fill-rule="evenodd" clip-rule="evenodd" d="M61.1754 96.6944C62.198 92.7239 61.4698 90.0254 64.6308 85.707C62.8798 88.3243 61.648 94.9817 61.7642 97.6145C65.8782 96.5243 71.4565 88.131 66.2539 80.2829C59.5638 83.1631 58.3049 92.6118 61.1715 96.6982" fill="url(#paint4_linear_328_50)"></path>
  <defs>
    <linearGradient id="paint0_linear_328_50" x1="-44.1808" y1="-43.4276" x2="60.8579" y2="120.329" gradientUnits="userSpaceOnUse">
      <stop stop-color="#8C5511"></stop>
      <stop offset="0.52" stop-color="#BF8034"></stop>
      <stop offset="1" stop-color="#733B0A"></stop>
    </linearGradient>
    <linearGradient id="paint1_linear_328_50" x1="-4.88483" y1="-62.6807" x2="93.6875" y2="90.9897" gradientUnits="userSpaceOnUse">
      <stop stop-color="#8C5511"></stop>
      <stop offset="0.52" stop-color="#BF8034"></stop>
      <stop offset="1" stop-color="#733B0A"></stop>
    </linearGradient>
    <linearGradient id="paint2_linear_328_50" x1="40.9928" y1="87.7869" x2="59.4476" y2="87.7869" gradientUnits="userSpaceOnUse">
      <stop stop-color="#8C5511"></stop>
      <stop offset="0.52" stop-color="#BF8034"></stop>
      <stop offset="1" stop-color="#733B0A"></stop>
    </linearGradient>
    <linearGradient id="paint3_linear_328_50" x1="37.1887" y1="101.21" x2="58.4211" y2="101.21" gradientUnits="userSpaceOnUse">
      <stop stop-color="#8C5511"></stop>
      <stop offset="0.52" stop-color="#BF8034"></stop>
      <stop offset="1" stop-color="#733B0A"></stop>
    </linearGradient>
    <linearGradient id="paint4_linear_328_50" x1="59.7304" y1="88.9468" x2="68.3613" y2="88.9468" gradientUnits="userSpaceOnUse">
      <stop stop-color="#8C5511"></stop>
      <stop offset="0.52" stop-color="#BF8034"></stop>
      <stop offset="1" stop-color="#733B0A"></stop>
    </linearGradient>
  </defs>
</svg>
