<?xml version="1.0" encoding="UTF-8"?>
<svg xmlns="http://www.w3.org/2000/svg" width="938" height="275" viewBox="0 0 938 275" fill="none">
  <g clip-path="url(#clip0_325_2)">
    <path d="M290.04 75.51H300.81V120.67C300.81 126.36 299.19 130.86 295.95 134.17C292.71 137.48 288.21 139.13 282.45 139.13C276.69 139.13 272.17 137.48 268.9 134.17C265.63 130.87 263.99 126.36 263.99 120.67V117.14H258.69V119.79C258.69 124.83 259.65 129.15 261.59 132.75C263.52 136.35 266.29 139.13 269.89 141.09C273.49 143.05 277.68 144.04 282.46 144.04C287.24 144.04 291.49 143.06 295.03 141.09C298.57 139.12 301.3 136.35 303.23 132.75C305.16 129.15 306.13 124.83 306.13 119.79V70.7H290.06V75.51H290.04Z" fill="url(#paint0_linear_325_2)"></path>
    <path d="M361.62 133.18C361.98 132.33 362.29 131.44 362.55 130.52V142.36H366.67V90.82H361.47V122.24C361.47 127.21 360.05 131.24 357.2 134.32C354.35 137.4 350.51 138.93 345.66 138.93C340.81 138.93 337.23 137.44 334.71 134.46C332.19 131.48 330.93 127.6 330.93 122.83V90.83H325.63V121.66C325.63 128.47 327.23 133.87 330.44 137.86C333.65 141.85 338.36 143.85 344.58 143.85H344.87C349.12 143.85 352.63 142.92 355.37 141.05C358.12 139.18 360.2 136.57 361.6 133.2L361.62 133.18Z" fill="url(#paint1_linear_325_2)"></path>
    <path d="M387.39 142.36H392.6V75.11V70.7H387.39H379.64V75.11H387.39V142.36Z" fill="url(#paint2_linear_325_2)"></path>
    <path d="M416.06 80.02C417.56 80.02 418.66 79.64 419.35 78.89C420.04 78.14 420.38 77.17 420.38 75.99C420.38 74.75 420.02 73.73 419.3 72.95C418.58 72.16 417.53 71.77 416.16 71.77C414.79 71.77 413.64 72.16 412.92 72.95C412.2 73.74 411.84 74.75 411.84 75.99C411.84 77.17 412.2 78.13 412.92 78.89C413.64 79.64 414.69 80.02 416.06 80.02Z" fill="url(#paint3_linear_325_2)"></path>
    <path d="M415.57 142.36H420.87V95.34V90.82H415.57H407.03V95.34H415.57V142.36Z" fill="url(#paint4_linear_325_2)"></path>
    <path d="M468.09 92.34C465.01 91 460.89 90.33 455.72 90.33C454.35 90.33 452.91 90.36 451.4 90.43C449.89 90.5 448.41 90.59 446.93 90.72C445.46 90.85 444.07 91.01 442.76 91.21V95.92C444.07 95.72 445.54 95.58 447.18 95.48C448.82 95.38 450.55 95.28 452.38 95.19C454.21 95.09 456.01 95.04 457.78 95.04C462.75 95.04 466.32 96.17 468.48 98.43C470.64 100.69 471.72 103.88 471.72 108V111.73H456.01C451.89 111.73 448.37 112.35 445.46 113.6C442.55 114.84 440.32 116.64 438.78 119C437.24 121.36 436.47 124.2 436.47 127.54C436.47 130.88 437.27 133.96 438.88 136.38C440.48 138.8 442.66 140.64 445.41 141.88C448.16 143.12 451.27 143.75 454.74 143.75C458.21 143.75 461.32 143.09 464.07 141.79C466.82 140.48 469.06 138.5 470.8 135.85C471.61 134.62 472.24 133.23 472.71 131.71V142.38H476.83V108.8C476.83 104.61 476.14 101.16 474.77 98.44C473.4 95.72 471.17 93.7 468.09 92.35V92.34ZM469.07 132.99C467.43 135.31 465.4 136.97 462.98 137.95C460.56 138.93 458.07 139.42 455.52 139.42C451.4 139.42 448.06 138.36 445.51 136.23C442.96 134.1 441.68 131.21 441.68 127.54C441.68 124.07 442.87 121.27 445.26 119.15C447.65 117.02 451.07 115.96 455.52 115.96H471.72V123.62C471.59 127.55 470.7 130.67 469.07 133V132.99Z" fill="url(#paint5_linear_325_2)"></path>
    <path d="M519.24 89.45H518.95C514.63 89.45 511.01 90.38 508.1 92.25C505.19 94.12 503 96.73 501.52 100.1C501.12 101.01 500.78 101.97 500.49 102.97V90.82H496.37V142.36H501.57V111.24C501.57 106.14 503.06 102.03 506.04 98.92C509.02 95.81 513.03 94.26 518.07 94.26C523.11 94.26 526.86 95.78 529.51 98.82C532.16 101.86 533.49 105.84 533.49 110.75V142.36H538.79V111.93C538.79 104.99 537.15 99.51 533.88 95.49C530.61 91.47 525.73 89.45 519.25 89.45H519.24Z" fill="url(#paint6_linear_325_2)"></path>
    <path d="M585.21 92.34C582.13 91 578.01 90.33 572.84 90.33C571.47 90.33 570.03 90.36 568.52 90.43C567.01 90.5 565.53 90.59 564.05 90.72C562.58 90.85 561.19 91.01 559.88 91.21V95.92C561.19 95.72 562.66 95.58 564.3 95.48C565.94 95.38 567.67 95.28 569.5 95.19C571.33 95.09 573.13 95.04 574.9 95.04C579.87 95.04 583.44 96.17 585.6 98.43C587.76 100.69 588.84 103.88 588.84 108V111.73H573.13C569.01 111.73 565.49 112.35 562.58 113.6C559.67 114.84 557.44 116.64 555.9 119C554.36 121.36 553.59 124.2 553.59 127.54C553.59 130.88 554.39 133.96 556 136.38C557.6 138.8 559.78 140.64 562.53 141.88C565.28 143.12 568.39 143.75 571.86 143.75C575.33 143.75 578.44 143.09 581.19 141.79C583.94 140.48 586.18 138.5 587.92 135.85C588.73 134.62 589.36 133.23 589.83 131.71V142.38H593.95V108.8C593.95 104.61 593.26 101.16 591.89 98.44C590.52 95.72 588.29 93.7 585.21 92.35V92.34ZM586.19 132.99C584.55 135.31 582.52 136.97 580.1 137.95C577.68 138.93 575.19 139.42 572.64 139.42C568.52 139.42 565.18 138.36 562.63 136.23C560.08 134.1 558.8 131.21 558.8 127.54C558.8 124.07 559.99 121.27 562.38 119.15C564.77 117.02 568.19 115.96 572.64 115.96H588.84V123.62C588.71 127.55 587.82 130.67 586.19 133V132.99Z" fill="url(#paint7_linear_325_2)"></path>
    <path d="M688.29 123.12C688.29 119.59 687.44 116.41 685.74 113.6C684.04 110.79 681.53 108.48 678.23 106.68C674.92 104.88 670.88 103.78 666.11 103.39L657.57 102.7C652.86 102.24 649.24 100.83 646.72 98.48C644.2 96.12 642.94 92.98 642.94 89.06C642.94 86.31 643.58 83.78 644.85 81.45C646.13 79.13 648.11 77.26 650.79 75.85C653.47 74.44 656.97 73.74 661.29 73.74C665.61 73.74 669.36 74.53 672.14 76.1C674.92 77.67 676.97 79.72 678.28 82.24C679.59 84.76 680.24 87.49 680.24 90.44H685.54C685.54 86.38 684.61 82.73 682.74 79.49C680.87 76.25 678.14 73.67 674.54 71.73C670.94 69.8 666.52 68.83 661.29 68.83C656.06 68.83 651.77 69.73 648.23 71.53C644.7 73.33 642.04 75.75 640.28 78.8C638.52 81.85 637.63 85.26 637.63 89.06C637.63 94.36 639.36 98.65 642.83 101.92C646.3 105.19 651.01 107.09 656.97 107.61L665.51 108.3C671.4 108.89 675.78 110.54 678.67 113.26C681.55 115.98 682.99 119.27 682.99 123.13C682.99 126.27 682.19 129.04 680.58 131.43C678.98 133.82 676.57 135.7 673.36 137.08C670.15 138.45 666.16 139.14 661.38 139.14C656.28 139.14 652.09 138.37 648.81 136.83C645.54 135.29 643.13 133.21 641.59 130.6C640.05 127.98 639.28 125.04 639.28 121.76H633.98C633.98 126.02 634.99 129.83 637.02 133.2C639.05 136.57 642.09 139.22 646.15 141.15C650.21 143.08 655.28 144.05 661.37 144.05C667.13 144.05 672 143.15 676 141.35C679.99 139.55 683.03 137.06 685.13 133.89C687.22 130.72 688.27 127.13 688.27 123.14L688.29 123.12Z" fill="url(#paint8_linear_325_2)"></path>
    <path d="M748.23 135.49C750.49 132.94 752.21 130.07 753.38 126.9C754.56 123.73 755.15 120.47 755.15 117.13V116.15C755.15 112.75 754.54 109.44 753.33 106.23C752.12 103.02 750.37 100.14 748.08 97.59C745.79 95.04 742.99 93.01 739.69 91.5C736.38 90 732.64 89.24 728.45 89.24C724.26 89.24 720.41 89.99 717.11 91.5C713.8 93.01 711.01 95.03 708.72 97.59C706.43 100.14 704.69 103.02 703.52 106.23C702.34 109.44 701.75 112.74 701.75 116.15V117.13C701.75 120.47 702.32 123.72 703.47 126.9C704.61 130.08 706.32 132.94 708.57 135.49C710.83 138.04 713.63 140.1 716.96 141.68C720.29 143.26 724.13 144.04 728.45 144.04C732.77 144.04 736.58 143.25 739.89 141.68C743.19 140.11 745.98 138.05 748.23 135.49ZM716.76 136.08C713.55 133.99 711.11 131.22 709.45 127.78C707.79 124.34 706.95 120.63 706.95 116.64C706.95 112.65 707.8 108.74 709.5 105.3C711.2 101.86 713.67 99.11 716.91 97.05C720.15 94.99 723.99 93.96 728.45 93.96C732.91 93.96 736.81 94.99 739.99 97.05C743.16 99.11 745.6 101.86 747.3 105.3C749 108.74 749.85 112.52 749.85 116.64C749.85 120.76 749.02 124.35 747.35 127.78C745.68 131.21 743.26 133.98 740.08 136.08C736.9 138.18 733.03 139.22 728.45 139.22C723.87 139.22 719.97 138.17 716.77 136.08H716.76Z" fill="url(#paint9_linear_325_2)"></path>
    <path d="M815.18 97.45C813.05 94.93 810.45 92.93 807.37 91.46C804.29 89.99 800.82 89.25 796.96 89.25C792.38 89.25 788.35 90.27 784.88 92.29C781.41 94.32 778.71 97.15 776.78 100.78C776.55 101.2 776.34 101.64 776.14 102.08V70.69H770.94V142.36H775.06V129.48C775.39 130.32 775.77 131.15 776.19 131.95C778.12 135.62 780.84 138.54 784.34 140.74C787.84 142.93 791.95 144.03 796.66 144.03C800.65 144.03 804.2 143.26 807.31 141.72C810.42 140.18 813.05 138.12 815.21 135.53C817.37 132.95 818.99 130.07 820.07 126.89C821.15 123.72 821.69 120.43 821.69 117.02V116.04C821.69 112.51 821.13 109.15 820.02 105.98C818.91 102.81 817.29 99.96 815.16 97.44L815.18 97.45ZM814.15 127.74C812.58 131.21 810.27 134.01 807.23 136.13C804.19 138.26 800.5 139.32 796.19 139.32C792.2 139.32 788.68 138.42 785.64 136.62C782.6 134.82 780.21 132.4 778.47 129.36C776.74 126.32 775.87 122.93 775.87 119.2V114.19C775.87 110.26 776.75 106.78 778.52 103.73C780.29 100.68 782.69 98.3 785.74 96.56C788.78 94.83 792.27 93.96 796.2 93.96C800.45 93.96 804.09 94.96 807.1 96.95C810.11 98.95 812.43 101.66 814.07 105.1C815.71 108.54 816.52 112.35 816.52 116.54C816.52 120.73 815.73 124.26 814.16 127.73L814.15 127.74Z" fill="url(#paint10_linear_325_2)"></path>
    <path d="M845.96 95.93C843.94 98.15 842.53 101.09 841.74 104.7V90.82H837.62V142.36H842.82V113.5C842.82 107.48 844.36 102.91 847.43 99.81C850.51 96.7 855.09 95.15 861.17 95.15H863.92V90.44H862.15C854.69 90.44 849.29 92.27 845.95 95.94L845.96 95.93Z" fill="url(#paint11_linear_325_2)"></path>
    <path d="M903.29 92.34C900.21 91 896.09 90.33 890.92 90.33C889.55 90.33 888.11 90.36 886.6 90.43C885.09 90.5 883.61 90.59 882.13 90.72C880.66 90.85 879.27 91.01 877.96 91.21V95.92C879.27 95.72 880.74 95.58 882.38 95.48C884.01 95.38 885.75 95.28 887.58 95.19C889.41 95.09 891.21 95.04 892.98 95.04C897.95 95.04 901.52 96.17 903.68 98.43C905.84 100.69 906.92 103.88 906.92 108V111.73H891.21C887.09 111.73 883.57 112.35 880.66 113.6C877.75 114.84 875.52 116.64 873.98 119C872.44 121.36 871.67 124.2 871.67 127.54C871.67 130.88 872.47 133.96 874.08 136.38C875.68 138.8 877.86 140.64 880.61 141.88C883.36 143.12 886.47 143.75 889.94 143.75C893.41 143.75 896.52 143.09 899.27 141.79C902.02 140.48 904.26 138.5 905.99 135.85C906.8 134.62 907.43 133.23 907.91 131.7V142.37H912.03V108.79C912.03 104.6 911.34 101.15 909.97 98.43C908.59 95.71 906.37 93.69 903.29 92.34ZM904.27 132.99C902.63 135.31 900.6 136.97 898.18 137.95C895.76 138.93 893.27 139.42 890.72 139.42C886.6 139.42 883.26 138.36 880.71 136.23C878.16 134.1 876.88 131.21 876.88 127.54C876.88 124.07 878.07 121.27 880.46 119.15C882.85 117.02 886.27 115.96 890.72 115.96H906.92V123.62C906.79 127.55 905.91 130.67 904.27 133V132.99Z" fill="url(#paint12_linear_325_2)"></path>
    <path d="M931.86 70.7H924.1V75.11H931.86V142.36H937.06V75.11V70.7H931.86Z" fill="url(#paint13_linear_325_2)"></path>
    <path d="M339.48 183.04L328.45 168.58H324.61V186.88H327.85V172.43L338.86 186.88H342.7V168.58H339.48V183.04Z" fill="url(#paint14_linear_325_2)"></path>
    <path d="M368.84 179.35C368.84 183.09 367.19 184.58 363.4 184.58C359.61 184.58 357.94 183.09 357.94 179.35V168.58H354.73V179.58C354.73 185.98 358.96 187.26 363.41 187.26C367.86 187.26 372.09 185.98 372.09 179.58V168.58H368.85V179.35H368.84Z" fill="url(#paint15_linear_325_2)"></path>
    <path d="M383.07 171.3H389.99V186.88H393.21V171.3H400.13V168.58H383.07V171.3Z" fill="url(#paint16_linear_325_2)"></path>
    <path d="M428.94 174.49C428.94 170.96 426.85 168.58 422.3 168.58H411.11V186.88H414.32V180.45H421.25C421.43 180.45 421.64 180.42 421.82 180.42L425.85 186.88H429.56L425.04 179.88C427.63 178.96 428.93 177.06 428.93 174.5L428.94 174.49ZM421.65 177.76H414.33V171.3H421.65C424.26 171.3 425.65 172.27 425.65 174.49C425.65 176.71 424.19 177.76 421.65 177.76Z" fill="url(#paint17_linear_325_2)"></path>
    <path d="M443.5 168.58H440.29V186.88H443.5V168.58Z" fill="url(#paint18_linear_325_2)"></path>
    <path d="M464.52 170.91C468.78 170.91 470.37 173.45 470.9 175.85H474.27C473.43 170.67 469.3 168.22 464.52 168.22C459.45 168.22 454.48 170.96 454.48 177.73C454.48 184.5 459.45 187.27 464.52 187.27C469.3 187.27 473.43 184.81 474.27 179.64H470.9C470.38 182.04 468.78 184.58 464.52 184.58C460.26 184.58 457.8 181.94 457.8 177.73C457.8 173.52 460.13 170.91 464.52 170.91Z" fill="url(#paint19_linear_325_2)"></path>
    <path d="M488.47 168.58H485.26V186.88H488.47V168.58Z" fill="url(#paint20_linear_325_2)"></path>
    <path d="M515.37 183.04L504.34 168.58H500.5V186.88H503.74V172.43L514.74 186.88H518.58V168.58H515.37V183.04Z" fill="url(#paint21_linear_325_2)"></path>
    <path d="M533.82 168.58H530.61V186.88H533.82V168.58Z" fill="url(#paint22_linear_325_2)"></path>
    <path d="M554.53 176.32C550.61 175.77 548.15 175.56 548.15 173.58C548.15 172.17 549.12 170.94 553.19 170.94C557.26 170.94 558.47 172.35 558.63 173.68H561.92C561.92 171.07 559.54 168.22 553.27 168.22C547 168.22 544.91 170.62 544.91 173.81C544.91 176.79 546.95 178.2 551.34 178.91C556.44 179.75 559.47 179.56 559.47 181.76C559.47 183.72 557.33 184.56 553.93 184.56C549.98 184.56 547.84 183.36 547.74 181.45H544.29C544.29 184.74 547.01 187.28 553.83 187.28C560.23 187.28 562.82 184.82 562.82 181.37C562.82 177.92 559.71 177.03 554.53 176.33V176.32Z" fill="url(#paint23_linear_325_2)"></path>
    <path d="M571.71 171.3H578.63V186.88H581.85V171.3H588.78V168.58H571.71V171.3Z" fill="url(#paint24_linear_325_2)"></path>
    <path d="M602.74 168.58L594.27 186.88H597.75L599.58 182.8H610.06L611.92 186.88H615.4L606.93 168.58H602.75H602.74ZM600.8 180.08L604.83 171.11L608.85 180.08H600.8Z" fill="url(#paint25_linear_325_2)"></path>
    <path d="M643.96 168.58H640.75V186.88H643.96V168.58Z" fill="url(#paint26_linear_325_2)"></path>
    <path d="M670.86 183.04L659.83 168.58H655.99V186.88H659.23V172.43L670.24 186.88H674.08V168.58H670.86V183.04Z" fill="url(#paint27_linear_325_2)"></path>
    <path d="M685.06 171.3H691.99V186.88H695.2V171.3H702.13V168.58H685.06V171.3Z" fill="url(#paint28_linear_325_2)"></path>
    <path d="M716.33 178.86H727.44V176.11H716.33V171.3H728.19V168.58H713.11V186.88H728.43V184.16H716.33V178.86Z" fill="url(#paint29_linear_325_2)"></path>
    <path d="M749.13 176.74V179.46H755.46C755.28 181.84 753.66 184.58 749.08 184.58C744.5 184.58 741.68 181.76 741.68 177.73C741.68 173.7 744.29 170.91 748.66 170.91C752.42 170.91 754.04 172.66 754.8 174.44H758.25C757.05 170.41 753.44 168.22 748.66 168.22C743.38 168.22 738.36 171.41 738.36 177.73C738.36 184.05 743.2 187.27 749.05 187.27C755.51 187.27 759.19 183.43 758.72 176.74H749.13Z" fill="url(#paint30_linear_325_2)"></path>
    <path d="M787.59 174.49C787.59 170.96 785.5 168.58 780.95 168.58H769.76V186.88H772.97V180.45H779.9C780.08 180.45 780.29 180.42 780.47 180.42L784.5 186.88H788.21L783.69 179.88C786.28 178.96 787.58 177.06 787.58 174.5L787.59 174.49ZM780.3 177.76H772.98V171.3H780.3C782.91 171.3 784.3 172.27 784.3 174.49C784.3 176.71 782.84 177.76 780.3 177.76Z" fill="url(#paint31_linear_325_2)"></path>
    <path d="M805.31 168.58L796.84 186.88H800.32L802.15 182.8H812.63L814.49 186.88H817.97L809.5 168.58H805.32H805.31ZM803.38 180.08L807.41 171.11L811.43 180.08H803.38Z" fill="url(#paint32_linear_325_2)"></path>
    <path d="M823.46 171.3H830.39V186.88H833.6V171.3H840.53V168.58H823.46V171.3Z" fill="url(#paint33_linear_325_2)"></path>
    <path d="M854.72 168.58H851.51V186.88H854.72V168.58Z" fill="url(#paint34_linear_325_2)"></path>
    <path d="M875.22 184.34L868.14 168.58H864.66L873.13 186.88H877.31L885.78 168.58H882.28L875.22 184.34Z" fill="url(#paint35_linear_325_2)"></path>
    <path d="M899.22 168.58L890.75 186.88H894.23L896.06 182.8H906.54L908.4 186.88H911.88L903.41 168.58H899.23H899.22ZM897.28 180.08L901.31 171.11L905.34 180.08H897.29H897.28Z" fill="url(#paint36_linear_325_2)"></path>
    <path d="M92.66 0.519997H18.16V2.06C24.93 2.06 30.17 2.57 33.86 3.6C37.55 4.63 40.22 6.63 41.86 9.6C43.5 12.57 44.32 17.13 44.32 23.28L44.63 134.91C44.63 175.92 43.65 205.49 41.71 223.63C39.76 241.77 35.75 254.38 29.7 261.46C23.64 268.53 13.74 272.17 -0.0100098 272.38V273.92C15.79 273.92 29.34 270.02 40.63 262.23C51.91 254.44 60.53 243.93 66.49 230.71C72.44 217.49 75.42 202.68 75.42 186.27V22.36C75.42 14.57 76.91 9.24 79.88 6.37C82.85 3.5 87.11 2.06 92.66 2.06V0.519997Z" fill="url(#paint37_linear_325_2)"></path>
    <path d="M226.95 154.43C220.56 144.71 212.85 136.57 203.81 129.99C194.77 123.42 182.49 115.71 166.97 106.88C151.84 98.24 139.85 90.79 131.01 84.5C122.17 78.22 115.29 70.86 110.38 62.42C105.86 55.16 103.6 47.7 103.6 40.04C103.6 32.97 105.61 26.55 109.64 20.75C113.67 14.96 119.17 10.4 126.15 7.06C133.12 3.72 141.04 2.05 149.88 2.05C162.85 2.05 174.69 5.44 185.4 12.21L198.22 5C194.09 5 188.3 4.31 180.83 2.94C170.22 0.98 161.67 0 155.19 0C142.22 0 130.33 2.65 119.53 7.95C108.72 13.25 100.22 20.37 94.03 29.3C87.84 38.23 84.75 47.9 84.75 58.3C84.75 64 85.73 69.69 87.7 75.38C90.65 83.23 95.31 90.5 101.7 97.17C108.08 103.85 115.06 109.79 122.63 114.98C130.19 120.18 140.07 126.32 152.25 133.38C165.61 141.23 176.32 147.95 184.38 153.55C192.44 159.14 199.61 165.67 205.9 173.13C212.19 180.59 216.11 188.93 217.69 198.16C218.28 201.1 218.57 204.15 218.57 207.29C218.57 219.66 213.66 230.55 203.83 239.97C194 249.39 177.5 254.69 154.31 255.87L153.57 257.31C169.29 256.72 184.08 253.67 196.46 248.07C208.84 242.48 218.61 234.63 225.79 224.51C232.96 214.4 236.55 202.48 236.55 188.74C236.55 175 233.35 164.15 226.97 154.44L226.95 154.43Z" fill="url(#paint38_linear_325_2)"></path>
    <path fill-rule="evenodd" clip-rule="evenodd" d="M150.8 257.97C150.64 257.78 144.38 243.5 139.48 236.38C137.1 232.91 134.71 229.62 131.68 226.25C128.44 222.65 124.47 219.32 121.9 216.15C133.05 221.69 140.53 233.94 146.42 243.77C149.55 249 149.87 252.07 152.59 255.16C158.16 224.03 135.59 203.37 107.67 196.16C102.85 210.89 108.25 228.38 113.61 236.39C119.33 244.94 118.7 245.38 129.89 247.46C141.07 249.54 143.59 254.82 150.79 257.96" fill="url(#paint39_linear_325_2)"></path>
    <path fill-rule="evenodd" clip-rule="evenodd" d="M148.48 265.04C135.93 264.75 128.39 268.8 113.31 262.39C122.33 265.79 143.04 264.82 150.81 262.64C144.7 251.14 115.8 240.37 96 261.33C109.23 279.26 138.29 276.43 148.48 265.04Z" fill="url(#paint40_linear_325_2)"></path>
    <path fill-rule="evenodd" clip-rule="evenodd" d="M157.91 250.11C160.55 239.84 158.67 232.86 166.83 221.69C162.31 228.46 159.13 245.68 159.43 252.49C170.05 249.67 184.45 227.96 171.02 207.66C153.75 215.11 150.5 239.55 157.9 250.12" fill="url(#paint41_linear_325_2)"></path>
  </g>
  <defs>
    <linearGradient id="paint0_linear_325_2" x1="343.59" y1="120" x2="973.81" y2="275.48" gradientUnits="userSpaceOnUse">
      <stop stop-color="#8C5511"></stop>
      <stop offset="0.52" stop-color="#BF8034"></stop>
      <stop offset="1" stop-color="#733B0A"></stop>
    </linearGradient>
    <linearGradient id="paint1_linear_325_2" x1="344.82" y1="115.03" x2="975.03" y2="270.52" gradientUnits="userSpaceOnUse">
      <stop stop-color="#8C5511"></stop>
      <stop offset="0.52" stop-color="#BF8034"></stop>
      <stop offset="1" stop-color="#733B0A"></stop>
    </linearGradient>
    <linearGradient id="paint2_linear_325_2" x1="349.39" y1="96.51" x2="979.6" y2="252" gradientUnits="userSpaceOnUse">
      <stop stop-color="#8C5511"></stop>
      <stop offset="0.52" stop-color="#BF8034"></stop>
      <stop offset="1" stop-color="#733B0A"></stop>
    </linearGradient>
    <linearGradient id="paint3_linear_325_2" x1="358.01" y1="61.57" x2="988.22" y2="217.06" gradientUnits="userSpaceOnUse">
      <stop stop-color="#8C5511"></stop>
      <stop offset="0.52" stop-color="#BF8034"></stop>
      <stop offset="1" stop-color="#733B0A"></stop>
    </linearGradient>
    <linearGradient id="paint4_linear_325_2" x1="348.67" y1="99.43" x2="978.88" y2="254.92" gradientUnits="userSpaceOnUse">
      <stop stop-color="#8C5511"></stop>
      <stop offset="0.52" stop-color="#BF8034"></stop>
      <stop offset="1" stop-color="#733B0A"></stop>
    </linearGradient>
    <linearGradient id="paint5_linear_325_2" x1="350.75" y1="90.99" x2="980.96" y2="246.48" gradientUnits="userSpaceOnUse">
      <stop stop-color="#8C5511"></stop>
      <stop offset="0.52" stop-color="#BF8034"></stop>
      <stop offset="1" stop-color="#733B0A"></stop>
    </linearGradient>
    <linearGradient id="paint6_linear_325_2" x1="354.06" y1="77.58" x2="984.27" y2="233.06" gradientUnits="userSpaceOnUse">
      <stop stop-color="#8C5511"></stop>
      <stop offset="0.52" stop-color="#BF8034"></stop>
      <stop offset="1" stop-color="#733B0A"></stop>
    </linearGradient>
    <linearGradient id="paint7_linear_325_2" x1="357.47" y1="63.75" x2="987.68" y2="219.24" gradientUnits="userSpaceOnUse">
      <stop stop-color="#8C5511"></stop>
      <stop offset="0.52" stop-color="#BF8034"></stop>
      <stop offset="1" stop-color="#733B0A"></stop>
    </linearGradient>
    <linearGradient id="paint8_linear_325_2" x1="364.94" y1="33.46" x2="995.16" y2="188.95" gradientUnits="userSpaceOnUse">
      <stop stop-color="#8C5511"></stop>
      <stop offset="0.52" stop-color="#BF8034"></stop>
      <stop offset="1" stop-color="#733B0A"></stop>
    </linearGradient>
    <linearGradient id="paint9_linear_325_2" x1="366.46" y1="27.34" x2="996.67" y2="182.82" gradientUnits="userSpaceOnUse">
      <stop stop-color="#8C5511"></stop>
      <stop offset="0.52" stop-color="#BF8034"></stop>
      <stop offset="1" stop-color="#733B0A"></stop>
    </linearGradient>
    <linearGradient id="paint10_linear_325_2" x1="371.4" y1="7.31001" x2="1001.61" y2="162.8" gradientUnits="userSpaceOnUse">
      <stop stop-color="#8C5511"></stop>
      <stop offset="0.52" stop-color="#BF8034"></stop>
      <stop offset="1" stop-color="#733B0A"></stop>
    </linearGradient>
    <linearGradient id="paint11_linear_325_2" x1="373.53" y1="-1.35" x2="1003.75" y2="154.14" gradientUnits="userSpaceOnUse">
      <stop stop-color="#8C5511"></stop>
      <stop offset="0.52" stop-color="#BF8034"></stop>
      <stop offset="1" stop-color="#733B0A"></stop>
    </linearGradient>
    <linearGradient id="paint12_linear_325_2" x1="375.719" y1="-10.22" x2="1005.94" y2="145.26" gradientUnits="userSpaceOnUse">
      <stop stop-color="#8C5511"></stop>
      <stop offset="0.52" stop-color="#BF8034"></stop>
      <stop offset="1" stop-color="#733B0A"></stop>
    </linearGradient>
    <linearGradient id="paint13_linear_325_2" x1="380.629" y1="-30.11" x2="1010.84" y2="125.38" gradientUnits="userSpaceOnUse">
      <stop stop-color="#8C5511"></stop>
      <stop offset="0.52" stop-color="#BF8034"></stop>
      <stop offset="1" stop-color="#733B0A"></stop>
    </linearGradient>
    <linearGradient id="paint14_linear_325_2" x1="329.6" y1="176.73" x2="959.811" y2="332.22" gradientUnits="userSpaceOnUse">
      <stop stop-color="#8C5511"></stop>
      <stop offset="0.52" stop-color="#BF8034"></stop>
      <stop offset="1" stop-color="#733B0A"></stop>
    </linearGradient>
    <linearGradient id="paint15_linear_325_2" x1="331.45" y1="169.22" x2="961.66" y2="324.71" gradientUnits="userSpaceOnUse">
      <stop stop-color="#8C5511"></stop>
      <stop offset="0.52" stop-color="#BF8034"></stop>
      <stop offset="1" stop-color="#733B0A"></stop>
    </linearGradient>
    <linearGradient id="paint16_linear_325_2" x1="333.12" y1="162.45" x2="963.33" y2="317.94" gradientUnits="userSpaceOnUse">
      <stop stop-color="#8C5511"></stop>
      <stop offset="0.52" stop-color="#BF8034"></stop>
      <stop offset="1" stop-color="#733B0A"></stop>
    </linearGradient>
    <linearGradient id="paint17_linear_325_2" x1="334.4" y1="157.26" x2="964.61" y2="312.75" gradientUnits="userSpaceOnUse">
      <stop stop-color="#8C5511"></stop>
      <stop offset="0.52" stop-color="#BF8034"></stop>
      <stop offset="1" stop-color="#733B0A"></stop>
    </linearGradient>
    <linearGradient id="paint18_linear_325_2" x1="335.81" y1="151.56" x2="966.019" y2="307.039" gradientUnits="userSpaceOnUse">
      <stop stop-color="#8C5511"></stop>
      <stop offset="0.52" stop-color="#BF8034"></stop>
      <stop offset="1" stop-color="#733B0A"></stop>
    </linearGradient>
    <linearGradient id="paint19_linear_325_2" x1="337.1" y1="146.31" x2="967.31" y2="301.8" gradientUnits="userSpaceOnUse">
      <stop stop-color="#8C5511"></stop>
      <stop offset="0.52" stop-color="#BF8034"></stop>
      <stop offset="1" stop-color="#733B0A"></stop>
    </linearGradient>
    <linearGradient id="paint20_linear_325_2" x1="338.39" y1="141.1" x2="968.599" y2="296.589" gradientUnits="userSpaceOnUse">
      <stop stop-color="#8C5511"></stop>
      <stop offset="0.52" stop-color="#BF8034"></stop>
      <stop offset="1" stop-color="#733B0A"></stop>
    </linearGradient>
    <linearGradient id="paint21_linear_325_2" x1="339.69" y1="135.83" x2="969.9" y2="291.31" gradientUnits="userSpaceOnUse">
      <stop stop-color="#8C5511"></stop>
      <stop offset="0.52" stop-color="#BF8034"></stop>
      <stop offset="1" stop-color="#733B0A"></stop>
    </linearGradient>
    <linearGradient id="paint22_linear_325_2" x1="340.989" y1="130.55" x2="971.203" y2="286.042" gradientUnits="userSpaceOnUse">
      <stop stop-color="#8C5511"></stop>
      <stop offset="0.52" stop-color="#BF8034"></stop>
      <stop offset="1" stop-color="#733B0A"></stop>
    </linearGradient>
    <linearGradient id="paint23_linear_325_2" x1="342.2" y1="125.66" x2="972.411" y2="281.15" gradientUnits="userSpaceOnUse">
      <stop stop-color="#8C5511"></stop>
      <stop offset="0.52" stop-color="#BF8034"></stop>
      <stop offset="1" stop-color="#733B0A"></stop>
    </linearGradient>
    <linearGradient id="paint24_linear_325_2" x1="343.94" y1="118.58" x2="974.16" y2="274.06" gradientUnits="userSpaceOnUse">
      <stop stop-color="#8C5511"></stop>
      <stop offset="0.52" stop-color="#BF8034"></stop>
      <stop offset="1" stop-color="#733B0A"></stop>
    </linearGradient>
    <linearGradient id="paint25_linear_325_2" x1="344.91" y1="114.65" x2="975.13" y2="270.14" gradientUnits="userSpaceOnUse">
      <stop stop-color="#8C5511"></stop>
      <stop offset="0.52" stop-color="#BF8034"></stop>
      <stop offset="1" stop-color="#733B0A"></stop>
    </linearGradient>
    <linearGradient id="paint26_linear_325_2" x1="347.308" y1="104.94" x2="977.522" y2="260.422" gradientUnits="userSpaceOnUse">
      <stop stop-color="#8C5511"></stop>
      <stop offset="0.52" stop-color="#BF8034"></stop>
      <stop offset="1" stop-color="#733B0A"></stop>
    </linearGradient>
    <linearGradient id="paint27_linear_325_2" x1="348.61" y1="99.66" x2="978.82" y2="255.15" gradientUnits="userSpaceOnUse">
      <stop stop-color="#8C5511"></stop>
      <stop offset="0.52" stop-color="#BF8034"></stop>
      <stop offset="1" stop-color="#733B0A"></stop>
    </linearGradient>
    <linearGradient id="paint28_linear_325_2" x1="350.45" y1="92.22" x2="980.66" y2="247.7" gradientUnits="userSpaceOnUse">
      <stop stop-color="#8C5511"></stop>
      <stop offset="0.52" stop-color="#BF8034"></stop>
      <stop offset="1" stop-color="#733B0A"></stop>
    </linearGradient>
    <linearGradient id="paint29_linear_325_2" x1="351.8" y1="86.73" x2="982.02" y2="242.22" gradientUnits="userSpaceOnUse">
      <stop stop-color="#8C5511"></stop>
      <stop offset="0.52" stop-color="#BF8034"></stop>
      <stop offset="1" stop-color="#733B0A"></stop>
    </linearGradient>
    <linearGradient id="paint30_linear_325_2" x1="353.42" y1="80.19" x2="983.63" y2="235.68" gradientUnits="userSpaceOnUse">
      <stop stop-color="#8C5511"></stop>
      <stop offset="0.52" stop-color="#BF8034"></stop>
      <stop offset="1" stop-color="#733B0A"></stop>
    </linearGradient>
    <linearGradient id="paint31_linear_325_2" x1="354.98" y1="73.85" x2="985.19" y2="229.34" gradientUnits="userSpaceOnUse">
      <stop stop-color="#8C5511"></stop>
      <stop offset="0.52" stop-color="#BF8034"></stop>
      <stop offset="1" stop-color="#733B0A"></stop>
    </linearGradient>
    <linearGradient id="paint32_linear_325_2" x1="356.541" y1="67.54" x2="986.75" y2="223.019" gradientUnits="userSpaceOnUse">
      <stop stop-color="#8C5511"></stop>
      <stop offset="0.52" stop-color="#BF8034"></stop>
      <stop offset="1" stop-color="#733B0A"></stop>
    </linearGradient>
    <linearGradient id="paint33_linear_325_2" x1="358.39" y1="60.03" x2="988.6" y2="215.52" gradientUnits="userSpaceOnUse">
      <stop stop-color="#8C5511"></stop>
      <stop offset="0.52" stop-color="#BF8034"></stop>
      <stop offset="1" stop-color="#733B0A"></stop>
    </linearGradient>
    <linearGradient id="paint34_linear_325_2" x1="359.406" y1="55.92" x2="989.619" y2="211.406" gradientUnits="userSpaceOnUse">
      <stop stop-color="#8C5511"></stop>
      <stop offset="0.52" stop-color="#BF8034"></stop>
      <stop offset="1" stop-color="#733B0A"></stop>
    </linearGradient>
    <linearGradient id="paint35_linear_325_2" x1="360.909" y1="49.8" x2="991.13" y2="205.281" gradientUnits="userSpaceOnUse">
      <stop stop-color="#8C5511"></stop>
      <stop offset="0.52" stop-color="#BF8034"></stop>
      <stop offset="1" stop-color="#733B0A"></stop>
    </linearGradient>
    <linearGradient id="paint36_linear_325_2" x1="361.93" y1="45.7" x2="992.14" y2="201.19" gradientUnits="userSpaceOnUse">
      <stop stop-color="#8C5511"></stop>
      <stop offset="0.52" stop-color="#BF8034"></stop>
      <stop offset="1" stop-color="#733B0A"></stop>
    </linearGradient>
    <linearGradient id="paint37_linear_325_2" x1="-114.06" y1="-112.33" x2="157.86" y2="310.75" gradientUnits="userSpaceOnUse">
      <stop stop-color="#8C5511"></stop>
      <stop offset="0.52" stop-color="#BF8034"></stop>
      <stop offset="1" stop-color="#733B0A"></stop>
    </linearGradient>
    <linearGradient id="paint38_linear_325_2" x1="-12.62" y1="-162.13" x2="242.56" y2="234.89" gradientUnits="userSpaceOnUse">
      <stop stop-color="#8C5511"></stop>
      <stop offset="0.52" stop-color="#BF8034"></stop>
      <stop offset="1" stop-color="#733B0A"></stop>
    </linearGradient>
    <linearGradient id="paint39_linear_325_2" x1="105.81" y1="227.07" x2="153.45" y2="227.07" gradientUnits="userSpaceOnUse">
      <stop stop-color="#8C5511"></stop>
      <stop offset="0.52" stop-color="#BF8034"></stop>
      <stop offset="1" stop-color="#733B0A"></stop>
    </linearGradient>
    <linearGradient id="paint40_linear_325_2" x1="95.99" y1="261.79" x2="150.8" y2="261.79" gradientUnits="userSpaceOnUse">
      <stop stop-color="#8C5511"></stop>
      <stop offset="0.52" stop-color="#BF8034"></stop>
      <stop offset="1" stop-color="#733B0A"></stop>
    </linearGradient>
    <linearGradient id="paint41_linear_325_2" x1="154.18" y1="230.07" x2="176.46" y2="230.07" gradientUnits="userSpaceOnUse">
      <stop stop-color="#8C5511"></stop>
      <stop offset="0.52" stop-color="#BF8034"></stop>
      <stop offset="1" stop-color="#733B0A"></stop>
    </linearGradient>
    <clipPath id="clip0_325_2">
      <rect width="937.06" height="274.18" fill="white"></rect>
    </clipPath>
  </defs>
</svg>
